<svg width="1199" height="273" viewBox="0 0 1199 273" fill="none" xmlns="http://www.w3.org/2000/svg">
<path d="M523.149 55.9976C380.498 13.8467 187.612 73.5605 109 108.686V272.5H805C770.488 217.895 665.8 98.1485 523.149 55.9976Z" fill="url(#paint0_linear_5843_552522)" fill-opacity="0.5"/>
<path d="M394.5 164.501C200.957 9.66668 83.7986 35.9274 8.22398 60.323C3.29946 61.9126 0 66.5095 0 71.6842V260.518C0 267.145 5.37257 272.518 12 272.518L1181.18 272.518C1189.56 272.518 1194.66 264.302 1188.76 258.344C1163.73 233.037 1097.61 207.5 1000.5 207.5C802 207.5 584.5 316.5 394.5 164.501Z" fill="url(#paint1_linear_5843_552522)"/>
<path d="M292.5 132C173.146 -32.7365 60.1498 1.13388 12.466 7.61168C5.70051 8.53076 0 14.194 0 21.0216V260.198C0 266.825 5.28484 272.198 11.9123 272.198H738.966C746.856 272.198 752.507 264.591 749.019 257.513C692.496 142.81 382.342 256.003 292.5 132Z" fill="#83F3B9" fill-opacity="0.5"/>
<defs>
<linearGradient id="paint0_linear_5843_552522" x1="109" y1="48.832" x2="790.696" y2="309.856" gradientUnits="userSpaceOnUse">
<stop offset="0.226798" stop-color="#2EC274"/>
<stop offset="1" stop-color="#6AD300"/>
</linearGradient>
<linearGradient id="paint1_linear_5843_552522" x1="-3.54974e-05" y1="60.2921" x2="605" y2="272.517" gradientUnits="userSpaceOnUse">
<stop offset="0.226798" stop-color="#2EC274"/>
<stop offset="1" stop-color="#6AD300"/>
</linearGradient>
</defs>
</svg>
